<?xml version="1.0" standalone="no"?>
<svg viewBox="-350 -150 1500 1500" style="width: 720px; height: 720px; justify-content: center; align-self: center; transform: scale(1, 1);" xmlns="http://www.w3.org/2000/svg"><g transform="rotate(0 408.51788902282715 623.3100433349609)"><g transform="translate(0 459)"><path d="M778.244 749.543C797.57 748.61 789.797 714.805 788.41 702.39C773.109 657.046 776.706 607.574 770.688 560.046C766.939 515.678 762.122 471.448 758.07 427.114C750.112 337.12 692.965 153.916 627.75 124.453C619.535 88.4068 585.604 54.7586 542.674 54.7586C513.394 20.0996 478.151 -4.29271 432.948 0.63229C414.268 1.48229 396.152 21.2943 378.253 25.1203C368.231 26.5023 279.291 22.9453 261.475 33.5263C249.065 39.8983 237.862 51.6733 241.511 66.6643C247.333 84.8263 229.24 65.1743 191.497 84.5593C114.534 130.782 160.524 192.619 162.562 194.535C114.534 261.358 72.5551 315.57 53.1321 397.247C40.5441 457.886 41.9611 520.485 31.4141 581.435C27.6901 602.569 21.9771 622.98 15.7951 643.503C9.09505 670.362 5.83721 737.306 2.14421 737.904C-4.58279 739.575 6.03205 753.387 13.1601 753.398C210.784 786.179 411.522 754.756 610.208 749.622C666.201 747.675 722.254 747.226 778.244 749.543Z" transform="translate(12.50415 -33.85719)" fill="#FFFFFF" stroke="none"></path><path d="M307.855 2.4589L307.101 2.58547C295.271 4.59142 282.709 7.69826 272.682 14.5299C263.284 20.9319 258.076 29.7199 253.737 39.9729L253.581 40.3424C250.197 48.3883 246.334 59.0025 237.322 61.9649C233.114 63.3473 228.493 63.2797 223.988 63.2138C222.432 63.191 220.89 63.1684 219.383 63.2059C213.199 63.3589 206.996 64.1349 201.161 66.2609C178.491 74.5199 162.849 94.8779 156.822 117.79C153.086 131.993 152.635 147.159 154.503 161.686C155.301 167.896 157.897 174.697 163.471 178.174C165.293 179.31 167.277 179.934 169.209 180.018C147.699 202.008 128.456 226.143 110.935 251.506C96.5071 272.393 82.7451 293.942 71.7051 316.836C59.5801 341.981 51.5401 368.321 47.2671 395.897C42.9381 423.83 41.5171 452.06 39.1441 480.196C36.8581 507.315 32.6171 533.833 26.2981 560.305C19.1281 590.339 10.5571 620.108 5.00309 650.506C2.17909 665.96 0.172089 681.582 0.016089 697.307C-0.138911 712.796 0.758089 729.109 5.69609 743.866C7.28009 748.6 11.6581 751.851 16.7541 751.086C21.1851 750.419 26.1371 746.219 25.4921 741.187C23.8091 728.052 21.7231 715.071 21.5031 701.796C21.2841 688.598 22.2531 675.327 23.8641 662.235C26.8818 637.726 32.9411 613.781 38.8117 589.837L40.3591 583.498C46.8471 556.762 52.5511 529.976 55.4461 502.585C58.2691 475.878 59.1211 449.011 61.6471 422.279C64.1921 395.354 68.8771 368.681 78.5101 343.316C87.265 320.265 99.6124 298.732 112.669 277.871L114.414 275.094C137.391 238.648 163.693 204.228 194.565 174.086C211.398 157.65 229.53 142.316 248.664 128.625C258.603 121.513 268.698 114.628 279.099 108.206C286.55 103.605 294.185 99.3049 301.704 94.8199C305.695 97.1379 309.428 100.968 312.048 103.425L314.626 105.867C319.76 110.774 324.767 115.803 329.893 120.717C341.723 132.058 353.196 143.739 365.359 154.735C377.005 165.263 389.507 175.16 403.066 183.12C410.05 187.219 417.373 190.714 424.932 193.622C431.202 196.034 441.728 199.775 446.99 193.984C450.11 191.806 451.223 187.676 448.559 184.44C445.562 177.677 435.143 176.09 428.744 173.569C421.283 170.632 414.17 166.683 407.398 162.414C394.461 154.257 382.785 144.378 371.398 134.211L369.046 132.104C356.11 120.481 343.349 108.636 328.851 98.9469C323.804 95.5729 317.429 91.2979 310.936 89.1229L312.398 88.1889C312.916 87.8509 312.6 86.9759 311.965 87.1609C310.689 87.5319 309.418 87.9229 308.148 88.3269C302.196 86.9439 296.292 87.6819 291.363 92.8679C290.954 93.2979 291.469 93.9479 291.987 93.6769C293.17 93.0619 294.393 92.8159 295.633 92.8419C279.984 99.1169 264.872 107.417 250.545 115.795C231.773 126.771 213.948 139.544 197.399 153.637C190.76 159.292 184.328 165.158 178.076 171.198C177.287 169.175 174.973 167.855 172.442 168.206C171.303 168.364 169.069 161.781 168.827 159.974C168.069 154.323 168.098 148.412 168.301 142.723C168.697 131.549 170.696 120.093 175.383 109.875C183.123 92.9999 198.68 79.2099 217.708 77.6809C228.515 76.8139 239.85 77.5959 249.275 71.2129C256.552 66.284 260.754 58.8084 264.073 50.9261L264.511 49.8729C267.783 41.8919 271.186 33.2229 278.02 27.6029C285.17 21.7238 294.466 19.0659 303.368 16.8945L305.898 16.2849C330.616 10.3786 355.677 10.9613 380.816 11.9458L388.757 12.2629C388.986 12.2729 389.079 11.9339 388.875 11.8269C364.204 -1.1861 334.85 -2.0251 307.855 2.4589ZM399.76 23.7801C393.622 22.0941 387.33 25.8471 385.547 31.8501C383.705 38.0461 383.895 45.1551 383.236 51.5901C382.919 54.6995 383.123 57.8131 383.326 60.9192C383.469 63.1015 383.612 65.2802 383.574 67.4511C380.231 63.8771 376.848 60.3481 373.332 57.0011C372.428 56.1401 371.274 57.2191 371.713 58.2501C378.911 75.1751 390.454 90.9031 402.132 104.969C414.137 119.43 427.664 132.611 441.883 144.887C448.857 150.908 456.055 156.664 463.401 162.225L464.174 162.807C471.923 168.606 480.161 173.64 490.284 172.117C498.934 170.815 505.966 165.543 512.443 159.977L513.703 158.885C520.913 152.598 527.838 145.97 534.422 139.03C547.676 125.061 559.6 109.662 570.06 93.5021C570.181 93.315 570.303 93.1276 570.425 92.9399C572.897 89.1386 575.456 85.2033 574.127 80.4281C573.486 78.1261 572.12 76.5591 570.401 75.6991C569.992 75.1811 569.517 74.6791 568.957 74.2041L568.857 74.1151C568.433 72.9601 568.02 71.8031 567.621 70.6401C566.966 68.8191 566.296 67.0081 565.594 65.2041C564.086 61.3261 562.598 57.4381 560.975 53.6061C559.425 49.9461 557.893 46.2731 556.293 42.6341L556.156 42.3193C554.841 39.2874 553.892 36.5844 550.811 34.9701C550.644 34.8831 550.373 34.8781 550.242 35.0431C548.077 37.7878 548.14 40.9699 548.207 44.2948C548.209 44.4248 548.212 44.5549 548.214 44.6853L548.229 45.7651C548.258 51.1201 548.274 56.4721 548.483 61.8231C548.54 63.2807 548.538 64.9084 548.537 66.6317C548.532 73.9061 548.525 82.884 552.868 87.9571C550.542 91.4671 548.153 94.9361 545.686 98.3471C534.575 113.699 521.866 127.977 508.141 141.036L507.851 141.313C502.313 146.641 495.031 155.2 486.971 155.94C483.654 156.245 480.591 154.478 477.845 152.68L476.353 151.691C472.351 149.039 468.458 146.207 464.595 143.359C447.626 130.843 432.234 116.708 417.082 102.093C411.929 97.1238 406.918 92.0036 401.937 86.8559L395.543 80.2321C393.683 78.3061 391.843 76.3463 390.009 74.3746L386.343 70.4221C389.67 65.1641 394.434 60.9491 397.7 55.5961C401.236 49.8031 405.43 44.3681 407.83 37.9941C410.029 32.1531 405.385 25.3261 399.76 23.7801ZM563.599 43.1334C571.711 40.3194 581.853 42.8734 589.786 45.3314C598.624 48.0714 606.791 53.1174 613.793 59.1104C621.18 65.4304 627.285 73.2344 631.598 81.9524L632.01 82.7923C635.949 90.8792 640.436 101.981 638.45 110.865C638.393 111.117 638.328 111.36 638.254 111.595C654.349 119.518 669.213 129.442 682.157 142.02C697.229 156.665 709.991 173.33 720.791 191.334C763.684 262.842 771.234 348.722 776.3 430.271L777.563 450.948C780.314 495.597 783.533 540.14 791.896 584.172L792.506 587.351C794.379 597.012 796.421 606.688 798.468 616.383C806.188 652.959 813.968 689.819 812.944 727.202C812.555 741.372 791.613 741.276 791.006 727.202C788.72 674.229 776.358 623.083 767.987 570.938C753.258 479.197 760.638 384.617 739.768 293.795C731.578 258.153 718.891 223.58 700.774 191.765C691.825 176.048 681.586 160.861 669.592 147.302C659.273 135.635 648.548 124.407 636.489 114.599C632.635 118.459 624.936 116.492 622.924 110.865C621.542 106.998 621.945 102.477 621.058 98.4264C620.235 94.6674 619.1 90.9404 617.588 87.4004C614.574 80.3454 610.15 73.5704 605.043 67.8604C599.526 61.6884 593.185 56.5604 586.09 52.3264C578.946 48.0634 571.133 46.7904 563.599 43.6754C563.345 43.5704 563.321 43.2304 563.599 43.1334ZM490.625 187.576C490.531 186.673 489.311 186.671 489.219 187.576C487.291 206.218 485.146 224.758 483.806 243.456C482.496 261.739 481.319 280.017 480.773 298.338C479.675 335.252 479.661 372.181 478.995 409.1C478.268 449.36 477.938 489.613 478.327 529.858L473.318 530.22C444.972 532.364 416.602 534.242 388.23 536.072L356.312 538.123C355.902 538.149 355.743 538.545 355.847 538.838C355.408 538.976 355.025 539.287 354.926 539.741C353.481 546.311 353.493 553.189 352.142 559.83C350.721 566.828 348.661 573.77 346.147 580.452C341.126 593.8 333.966 606.494 325.588 618.01C317.207 629.53 307.297 640.17 296.502 649.464C290.801 654.372 285.214 659.169 281.403 665.786C277.683 672.246 275.799 679.485 274.075 686.677L263.584 730.777C263.384 731.62 263.163 732.475 262.94 733.339C261.672 738.249 260.332 743.441 262.254 748.233C265.149 755.453 273.299 758.382 279.451 752.774C286.045 746.764 286.557 734.615 288.361 726.285L294.039 700.059L294.209 699.262C295.661 692.334 296.682 684.792 299.625 678.344C302.506 672.029 307.889 667.048 312.581 662.09L313.231 661.401C333.123 640.231 350.589 614.626 357.36 586.038C359.25 578.058 360.355 569.952 360.434 561.746C360.503 554.591 360.234 546.083 357.41 539.416C357.367 539.314 357.303 539.237 357.238 539.16C396.265 539.526 435.282 539.356 474.309 539.186C475.683 539.181 477.057 539.162 478.432 539.153C478.808 569.316 479.598 599.475 480.956 629.626C482.828 671.211 484.716 712.829 487.578 754.358C487.785 757.371 492.056 757.377 492.265 754.358C494.806 717.481 496.595 680.523 498.258 643.597L498.873 629.942C500.232 599.599 501.489 569.26 501.594 538.884C511.992 538.707 522.389 538.47 532.791 538.178C542.703 537.9 552.611 537.537 562.52 537.152C567.144 536.974 571.768 536.791 576.392 536.604C581.293 536.407 585.626 536.566 588.447 532.015C589.67 530.042 589.012 527.882 587.7 526.22C584.88 522.646 580.543 523.022 576.401 523.381C575.73 523.44 575.064 523.497 574.411 523.538L567.475 523.963L550.628 524.985C544.021 525.388 537.414 525.797 530.808 526.224C521.071 526.852 511.339 527.501 501.608 528.175C501.468 456.22 501.138 384.245 499.478 312.308C499.002 291.653 498.014 271.049 496.537 250.44C495.352 233.913 493.718 217.495 492.02 201.045L490.625 187.576ZM699.227 238.384C699.29 237.426 700.706 237.411 700.727 238.384C700.906 246.624 701.078 254.864 701.249 263.105C702.625 329.507 701.777 396.066 708.439 462.24C711.581 493.441 717.367 524.183 724.062 554.797C727.488 570.462 731.082 586.09 734.497 601.757C737.825 617.026 741.394 632.369 744.034 647.78C746.628 662.926 748.952 678.189 749.995 693.53L750.123 695.532C750.208 696.94 750.354 698.474 750.507 700.08C751.161 706.949 751.94 715.141 748.623 720.48C744.189 727.616 735.7 727.744 730.949 720.932C727.651 716.204 727.398 708.755 727.171 702.109C727.091 699.765 727.015 697.521 726.809 695.532C726.008 687.759 725.161 679.98 724.199 672.225C722.322 657.098 719.849 642.005 717.277 626.981C711.92 595.693 704.15 564.799 698.415 533.561C692.537 501.552 688.359 469.314 688.183 436.724C688.064 414.378 689.634 392.061 691.204 369.756C691.942 359.255 692.681 348.757 693.243 338.259C695.027 304.951 697.055 271.668 699.227 238.384ZM189.527 401.641C189.187 399.591 191.766 398.321 192.955 400.196C206.546 421.618 213.099 444.887 215.861 469.956C218.301 492.081 217.582 514.525 216.367 536.708C215.071 560.368 213.559 584.022 212.03 607.669L209.681 643.932L203.786 734.841C203.364 741.344 201.888 747.257 196.289 750.28C195.58 750.872 194.841 751.403 193.98 751.863C190.955 753.48 186.943 752.663 185.194 749.559L185.895 750.02C186.506 750.405 185.82 749.868 183.837 748.411L182.154 746.233C180.931 744.395 180.15 742.588 179.836 740.403C179.474 737.887 179.728 735.191 179.974 732.575C180.06 731.66 180.145 730.756 180.202 729.872L184.066 670.26C187.071 623.917 190.58 577.587 193.225 531.22C194.457 509.61 195.32 487.979 194.736 466.331C194.154 444.803 193.057 422.91 189.527 401.641ZM595.836 533.129C595.566 532.88 595.127 533.056 595.115 533.428C594.93 539.644 598.101 546.787 600.836 552.947C601.431 554.287 602.005 555.58 602.519 556.806L603.013 557.98C605.993 565.024 609.245 572.075 613.303 578.555C618.047 586.131 623.312 593.39 629.149 600.16C634.652 606.543 640.847 612.076 646.809 618.003C652.727 623.887 656.334 630.017 658.227 638.139C660.374 647.362 661.316 656.935 662.476 666.321L662.977 670.446C663.961 678.696 664.84 686.959 665.615 695.232C665.819 697.406 665.914 699.759 666.013 702.192C666.37 710.955 666.768 720.741 672.412 726.828C676.609 731.355 683.668 729.7 686.773 724.979C689.673 720.566 689.548 715.442 689.085 710.392L688.926 708.757C688.406 703.598 687.77 698.447 687.132 693.301C685.82 682.722 684.365 672.158 682.741 661.622L682.449 659.702C679.786 641.949 677.747 623.041 665.125 609.265C659.076 602.663 651.615 597.344 644.957 591.381C638.812 585.879 632.888 580.042 627.33 573.948C621.354 567.395 615.425 560.707 610.099 553.611C607.441 550.069 604.906 546.433 602.492 542.721C600.399 539.502 598.68 535.746 595.836 533.129Z" transform="translate(2.000311 -20.99981)" fill="#000000" fill-rule="evenodd" stroke="none"></path></g><g transform="translate(225 0)"><g><g><path d="M241.078 449.929C218.882 450.06 200.018 443.762 185.624 433.343C167.662 426.938 145.996 417.059 132.836 406.688C127.703 407.998 121.561 402.545 117.633 399.667C93.2081 381.428 74.0361 354.731 68.3551 327.989C59.5851 339.059 47.1051 339.519 35.1501 334.017C10.0901 319.805 11.0271 289.88 20.0491 267.522C1.08214 224.965 -12.0629 112.619 16.8901 67.2778C22.8121 60.4938 31.5031 56.4358 37.7601 49.4788C43.3281 43.4028 48.6241 37.1878 55.1021 32.3798C74.8681 17.3358 108.912 9.32581 130.228 5.55881C219.21 -13.6792 287.578 20.8988 368.18 50.0658C363.541 61.6658 357.124 72.2448 349.77 82.1088C369.78 89.5778 360.589 106.371 345.065 114.884L335.823 110.392C350.23 161.938 383.386 290.12 369.08 331.283C357.672 395.503 307.606 450.395 241.078 449.929" transform="translate(46.32956 59.54019)" fill="#FFFFFF" stroke="none"></path><path d="M177.994 435.733C197.207 459.144 231.445 465.958 260.265 462.999C291.103 459.833 319.605 445.631 340.846 423.072C362.521 400.053 376.392 370.233 382.362 339.334C389.296 303.452 384.566 267.314 377.234 231.902L376.744 229.556C369.627 195.72 361.25 162.149 352.5 128.692C353.305 128.544 354.139 128.221 354.98 127.674C364.011 121.809 374.896 113.701 374.663 101.74C374.593 98.1683 373.569 94.8018 371.84 91.9581C370.473 89.7098 368.666 87.7889 366.542 86.3444C372.653 77.5122 377.674 68.0541 381.653 57.9729C382.271 56.4074 382.043 54.8353 381.277 53.4872C380.493 52.1055 379.115 50.9934 377.708 50.4771C371.224 48.0984 364.738 45.722 358.253 43.3457C344.299 38.2323 330.345 33.1191 316.398 27.9839C314.732 27.3704 313.066 26.7554 311.4 26.1404C293.453 19.5158 275.476 12.8832 256.952 8.03779C217.111 -2.38538 175.705 -2.01949 135.369 5.39565C116.724 8.8238 97.8776 13.255 80.3667 20.6451C72.2383 24.0767 64.4156 28.2087 57.3268 33.4876C51.2143 38.0406 46.3104 43.4277 41.2734 48.9794C40.9757 49.3075 40.6775 49.6362 40.3785 49.9653L38.9992 51.4783C36.0824 54.6649 32.6159 57.2114 29.1627 59.7636C25.1756 62.7102 21.2068 65.665 17.9721 69.4604C12.2986 76.1162 8.74545 84.1673 6.70038 92.6215C2.13761 111.484 0.820598 131.775 0.208314 151.115C-1.10063 192.434 3.59825 235.426 18.8801 274.144C18.7258 274.519 18.5755 274.889 18.4316 275.26C13.4677 288.023 12.1934 304.358 16.1144 318.566C19.4909 330.801 26.6955 341.44 38.5574 347.065C43.9396 349.617 51.2438 351.393 58.1449 351.13C62.8816 350.95 67.4121 349.807 71.0791 347.398C76.2818 363.849 86.4107 378.905 97.6889 391.681C104.311 399.184 111.845 405.893 119.793 411.956L120.487 412.487C124.075 415.24 129.712 419.458 134.804 420.408C136.871 420.793 138.86 420.674 140.66 419.895C142.274 419.196 143.762 417.965 144.991 415.978C145.585 415.018 145.919 413.803 145.919 412.589C145.919 411.38 145.589 410.189 144.946 409.239C143.996 407.836 143.07 407.157 142.178 406.793C141.069 406.341 139.941 406.392 138.596 406.569L138.504 406.581C137.972 406.651 137.389 406.728 136.726 406.702C134.364 406.611 131.833 404.295 129.722 402.568C128.983 401.963 128.29 401.398 127.666 400.939L126.622 400.164C119.384 394.731 112.785 388.525 106.56 381.948C95.7141 370.489 87.4432 357.401 79.3146 344.07L77.1916 340.579C77.3327 340.309 77.4682 340.033 77.5966 339.748C78.1084 338.616 78.274 337.361 78.1301 336.153C77.9814 334.904 77.5017 333.712 76.7699 332.76C76.0352 331.804 75.0518 331.087 73.8931 330.74C72.865 330.432 71.6856 330.406 70.3915 330.827C69.2524 331.198 68.1106 331.606 66.9633 332.016L66.6354 332.134C63.0207 333.428 59.3484 334.743 55.5154 334.705C50.7518 334.657 46.0231 333 42.1514 330.243C32.4994 323.37 29.9374 310.085 30.0252 299.015C30.1119 288.17 32.5412 275.539 40.8346 267.802C45.0073 263.909 50.4341 262.066 55.8477 262.133C61.4633 262.204 67.0613 264.324 71.8553 267.901C72.7766 268.588 73.6547 269.319 74.4842 270.09C74.8066 270.741 75.3181 271.246 75.922 271.578C75.9587 271.598 75.9958 271.618 76.0332 271.637C76.6189 272.266 77.1738 272.916 77.6954 273.587C77.5973 273.06 77.4843 272.535 77.3563 272.012C77.6168 272.035 77.8762 272.03 78.1267 271.996C78.9519 271.884 79.677 271.481 80.1739 270.841C80.5799 270.318 80.8698 269.612 80.8161 268.664C80.5085 263.23 79.7467 257.861 78.9832 252.498L78.959 252.329C77.8903 244.821 76.8229 237.324 77.098 229.66C77.327 223.261 78.4218 216.915 81.0026 211.016C82.3206 208.003 84.001 205.114 85.899 202.431C86.8408 201.1 87.9355 199.864 89.027 198.626C90.5403 196.91 92.0453 195.188 93.2275 193.267C95.1063 190.217 95.4793 187.433 95.0011 184.802C94.4301 181.661 92.5367 178.712 90.3567 175.75L88.9932 173.912C85.0192 168.516 81.3781 162.65 79.4487 156.188C75.9021 144.308 80.4497 133.245 87.4248 123.619C104.644 99.8574 132.826 92.6256 160.922 92.3686C176.664 92.2243 192.358 94.2392 207.559 98.33C218.903 101.382 229.284 106.079 239.789 110.822C243.478 112.488 247.182 114.16 250.947 115.772C258.357 118.946 266.356 121.481 274.515 120.966C282.36 120.469 289.376 117.309 295.794 112.917C297.361 111.845 299.105 110.527 300.979 109.109C306.155 105.194 312.361 100.451 318.591 98.3474C322 97.1963 325.426 96.8462 328.645 98.1072C328.549 99.0514 328.638 100.077 328.967 101.172C339.88 137.557 349.274 174.369 357.868 211.37C366.047 246.584 373.953 282.731 370.545 319.1C367.733 349.11 356.699 379.118 338.325 402.757C321.86 423.941 299.49 440.006 271.849 446.304C256.674 449.762 241.084 450.067 225.774 447.344C210.903 444.699 197.276 438.518 184.155 431.271L182.388 430.287C181.549 429.817 180.736 429.734 180.022 429.862C179.175 430.015 178.435 430.484 177.916 431.157C177.422 431.797 177.136 432.62 177.153 433.472C177.168 434.239 177.419 435.032 177.994 435.733ZM70.495 259.288C66.7213 247.312 64.7215 234.283 66.1653 222.143C67.0742 214.512 69.3684 207.166 73.1039 200.441C75.2435 196.589 77.8511 193.022 80.6969 189.664L81.6786 188.536C82.1755 187.96 82.6699 187.43 82.8231 186.766C82.9121 186.38 82.8215 185.959 82.587 185.454C82.0675 184.338 81.102 183.262 80.1982 182.212C79.6238 181.544 79.0627 180.889 78.5917 180.252C70.3209 169.056 64.153 155.727 66.158 141.53C68.1138 127.678 77.1918 114.767 86.8563 105.036C108.137 83.6101 141.129 78.6865 170.032 79.8683C186.857 80.5557 203.654 83.521 219.677 88.7007C227.578 91.2555 235.303 94.3667 242.81 97.9327L244.472 98.7308C245.369 99.1654 246.265 99.6048 247.162 100.045C253.03 102.922 258.92 105.828 265.29 107.392C277.474 110.384 285.82 104.274 294.492 97.9254C294.674 97.792 294.856 97.6585 295.039 97.525C298.078 95.3014 301.164 93.047 304.445 91.0686L305.12 90.6694C311.038 87.2388 318.116 84.9303 324.916 85.0338C330.822 85.1238 336.52 87.0096 341.16 91.4662C342.112 92.3819 342.66 93.3809 342.917 94.3752C343.431 95.0948 343.845 95.9529 344.115 96.9666C345.777 103.202 347.431 109.443 349.08 115.685L350.428 114.816C354.422 112.222 358.765 109.257 360.726 104.917C361.48 103.247 361.374 100.464 360.422 98.4178C360.09 97.7029 359.65 97.0672 359.043 96.6705C358.601 96.3818 358.068 96.2463 357.449 96.2962C355.944 96.49 354.562 96.2699 353.39 95.7745C352.038 95.2034 350.961 94.2635 350.261 93.1309C349.545 91.9712 349.219 90.6077 349.394 89.1936C349.544 87.9778 350.067 86.7081 351.103 85.515C357.916 77.6613 363.655 68.998 368.015 59.5944L339.169 48.9219C328.884 45.1185 318.596 41.3199 308.305 37.536L302.67 35.4656C283.956 28.6014 265.133 21.8933 245.671 17.474C206.994 8.69215 166.661 10.7561 128.091 19.0226L125.761 19.5261C109.575 23.0553 93.1723 27.3254 78.3162 34.7478C71.0242 38.3909 64.0928 42.8208 58.1403 48.4178C55.5116 50.8894 53.1349 53.5955 50.7574 56.298C47.4256 60.0854 44.0898 63.8625 40.1284 67.0529L36.4512 69.9973C30.9808 74.4052 26.0467 78.6998 22.9601 85.5358C19.7325 92.6826 18.192 100.578 16.9351 108.271C13.7652 127.649 12.514 147.338 12.6333 166.966C12.8351 199.925 17.8423 232.211 24.1681 264.384C29.2434 257.121 36.3727 251.49 45.5232 250.29C51.4889 249.507 57.4033 250.619 62.5319 253.257C65.4961 254.782 68.1976 256.816 70.495 259.288ZM40.1406 296.225C47.2101 294.987 54.2259 295.835 60.9079 298.423C63.9606 299.606 66.8219 301.27 69.4403 303.229C69.7907 303.491 70.1278 303.75 70.4566 304.003C73.1664 306.085 75.4186 307.692 79.2225 307.801C81.3791 307.862 83.0451 306.908 84.1349 305.477C85.2622 303.997 85.7476 301.956 85.4079 300C84.7566 296.247 82.1385 293.374 78.5616 291.29C74.0087 288.638 67.9375 287.29 63.6201 286.65L62.7855 286.531C54.3405 285.384 45.8321 286.997 38.1771 290.649C37.3782 291.031 36.9439 291.603 36.716 292.192C36.4532 292.871 36.4684 293.635 36.7661 294.341C37.0236 294.952 37.498 295.505 38.0999 295.855C38.6936 296.2 39.3999 296.354 40.1406 296.225Z" transform="translate(40.00029 51.99992)" fill="#000000" fill-rule="evenodd" stroke="none"></path></g></g><g transform="translate(159 186)"><g><path d="M140.63 0.473197L139.193 0.179116C137.503 -0.15929 135.804 -0.0161244 134.311 0.591153C132.847 1.18684 131.572 2.2242 130.68 3.72083C129.495 5.71373 129.337 7.38618 129.887 9.59525C130.311 11.3022 131.242 12.5864 132.46 13.5139C133.744 14.4911 135.37 15.0612 137.06 15.2595C144.854 16.175 152.53 17.8896 159.992 20.3235C163.488 21.4643 166.788 23.0096 170.058 24.6132L172.877 26.002C175.477 27.2735 178.163 28.499 181.557 29.3885C181.824 29.4584 182.087 29.5243 182.349 29.5865C183.29 29.2909 183.45 28.9329 183.649 28.6733L183.73 28.5721C183.972 28.2679 184.271 27.8025 183.988 25.6306C176.583 10.2711 156.267 3.74181 140.63 0.473197ZM43.5878 4.83023L45.4652 4.50163C51.273 3.49719 58.4944 2.53203 62.6028 7.20123C64.7819 9.67723 65.5318 14.2792 62.6028 16.6492C58.7671 19.7539 54.6298 19.6513 50.2182 19.5419C48.7043 19.5044 47.1582 19.466 45.5808 19.5562C40.4928 19.8482 35.6028 20.6902 30.7018 22.0912C19.9498 25.1642 11.1888 30.7742 2.00585 36.9342C0.800849 37.7422 -0.429151 36.2012 0.145849 35.0742C5.44685 24.6912 15.7198 16.1622 26.0098 10.9632C31.5019 8.18823 37.5118 5.88623 43.5878 4.83023ZM29.9632 50.1461C30.7976 39.7899 46.5702 37.4381 48.1392 47.6861C49.5442 56.8661 47.8902 65.2991 43.7552 73.5641C39.8042 81.4601 29.8737 77.7763 29.1227 70.5863C28.3809 63.4843 28.9069 59.2482 29.4428 54.933C29.6341 53.3921 29.8267 51.8412 29.9632 50.1461ZM159.205 41.8262C155.401 40.7152 152.226 42.6812 150.027 45.5612C149.773 45.8932 149.566 46.2222 149.38 46.5482C142.515 52.8562 145.101 65.6452 150.501 72.0492C153.814 75.9762 161.145 74.8452 163.413 70.3852C167.587 62.1722 171.09 45.2992 159.205 41.8262ZM128.748 119.039C136.872 107.66 125.366 96.9569 117.814 92.3669C115.836 90.9469 117.406 86.2431 121.634 86.9701C160.031 93.5671 140.136 159.708 91.112 123.413C85.2754 118.704 92.3434 108.334 98.6342 112.366C98.9532 112.611 99.2876 112.869 99.6364 113.139C106.704 118.603 119.636 128.601 128.748 119.039ZM93.5865 188.926C86.8642 186.184 80.8663 181.61 76.4812 175.766C74.9566 173.735 74.5614 171.589 74.8812 169.627C75.2408 167.421 76.546 165.422 78.326 164.08C80.1115 162.735 82.345 162.072 84.5043 162.41C86.3806 162.704 88.2484 163.731 89.7265 165.862L90.0354 166.288C92.6424 169.815 96.0396 172.708 99.9104 174.574C103.641 176.372 107.814 177.211 112.132 176.723C120.356 175.794 126.024 171.346 132.049 165.306C132.796 164.544 133.543 163.757 134.294 162.958C134.768 162.234 135.426 161.768 136.157 161.524C136.968 161.253 137.886 161.268 138.726 161.562C139.537 161.845 140.262 162.381 140.747 163.094C141.209 163.772 141.471 164.61 141.386 165.574C140.835 171.833 137.562 177.419 132.914 181.805C127.752 186.677 120.909 190.047 114.466 191.229C107.368 192.531 100.136 191.598 93.5865 188.926Z" transform="translate(53.00005 52.00027)" fill="#000000" fill-rule="evenodd" stroke="none"></path></g></g><g transform="translate(123 338)"></g><g transform="translate(47 241)"><g><path d="M379.584 5.44083C374.676 5.04763 361.281 0 337.809 0C322.496 0 301.24 4.68927 287.629 10.9038L286.824 11.2693C280.634 14.0632 274.177 16.647 267.464 17.7921C259.217 19.2079 251.031 17.4015 243.065 15.3129L241.551 14.9193C233.986 12.9714 226.468 11.3294 218.906 10.3325C214.682 9.34741 210.429 8.59431 206.136 8.01192C195.948 6.61618 185.67 6.17537 175.422 7.14937C165.484 8.10329 155.695 9.87959 146.278 13.2334C145.27 13.5949 144.233 13.9784 143.186 14.3751C138.049 15.8612 131.546 18.0813 126.898 21.3959C121.282 22.0084 114.562 21.4783 110.805 25.3522C104.733 26.5034 20.3682 25.8027 20.3682 25.8027C15.1403 26.8329 3.36676 30.0862 0.814798 35.4948C-0.876527 39.0896 0.134265 42.2626 3.20667 44.6434C7.63936 48.0673 18.1384 43.6483 18.1384 43.6483C23.6002 43.6483 92.0277 41.6027 103.436 39.19C104.866 39.0876 106.301 38.9822 107.739 38.8717C107.875 40.9121 108.43 42.9133 109.51 44.7027C111.973 48.8015 115.85 49.8994 120.051 50.6879L122.009 51.0397C131.215 52.6807 133.537 62.5902 136.45 70.2277L136.691 70.8501C140.724 81.1233 158.225 105.158 188.502 107.742C203.415 109.015 219.665 105.634 231.626 96.4252C234.918 93.8948 237.63 90.9728 239.822 87.6993C246.297 81.2037 249.339 72.4577 251.231 63.3001C252.512 57.0936 253.343 50.7485 253.703 44.4225L253.835 41.8901C255.753 40.155 257.831 39.0595 260.031 38.3958C262.045 37.9841 264.054 37.6818 266.087 37.4549C268.166 37.3625 270.307 37.4318 272.479 37.5091C277.025 37.6698 281.436 38.0142 285.242 39.8347L285.134 40.7543C284.406 47.4288 285.031 54.2635 286.368 60.8299C289.191 74.6055 297.887 86.2132 309.597 93.7653C318.004 99.1835 327.831 102.295 337.771 102.666C343.597 104 350.098 103.497 355.584 102.233C366.509 99.7157 385.73 92.8184 388.42 51.9474C389.927 45.2475 389.786 37.785 389.65 30.6239L389.65 30.622C389.59 27.4213 389.53 24.2818 389.619 21.2975C393.743 16.6273 392.592 9.21687 385.526 6.49569C383.605 5.75264 381.773 5.58193 379.732 5.4514L379.584 5.44083ZM359.696 19.3626C360.724 17.6003 363.403 16.6745 365.173 17.9216C369.215 20.7673 372.149 24.9997 372.344 30.0655C372.544 35.2438 364.537 35.2177 364.338 30.0655L364.321 29.8193C364.135 27.8505 362.654 25.9291 361.133 24.8571L360.964 24.7332C359.306 23.4637 358.565 21.3031 359.696 19.3626ZM218.087 22.7224C213.065 21.6178 210.92 29.3606 215.958 30.4682C219.526 31.2525 222.549 33.0515 224.592 36.0993L224.807 36.4307C227.548 40.7926 234.48 36.7661 231.72 32.376C228.614 27.4357 223.788 23.9755 218.087 22.7224Z" transform="translate(-1.98952E-12 15)" fill="#000000" fill-rule="evenodd" stroke="none"></path></g></g></g></g></svg>